<?xml version="1.0" standalone="no"?>
<!DOCTYPE svg PUBLIC "-//W3C//DTD SVG 20010904//EN"
 "http://www.w3.org/TR/2001/REC-SVG-20010904/DTD/svg10.dtd">
<svg version="1.0" xmlns="http://www.w3.org/2000/svg"
 width="50px" height="50px" viewBox="0 0 1680.000000 1680.000000"
 preserveAspectRatio="xMidYMid meet">
<metadata>
Created by potrace 1.16, written by Peter Selinger 2001-2019
</metadata>
<g transform="translate(0.000000,1680.000000) scale(0.100000,-0.100000)"
fill="#5181b8" stroke="none">
<path d="M7588 16614 c-4 -3 -54 -10 -111 -15 -58 -5 -134 -16 -169 -24 -35
-8 -86 -15 -113 -15 -28 0 -66 -5 -85 -10 -19 -6 -64 -15 -100 -21 -36 -5
-103 -16 -150 -23 -47 -8 -114 -21 -150 -29 -36 -9 -101 -23 -145 -32 -44 -10
-93 -21 -110 -25 -16 -5 -50 -13 -75 -19 -96 -22 -296 -78 -317 -89 -12 -7
-35 -12 -51 -12 -30 0 -207 -58 -258 -85 -16 -8 -38 -15 -50 -15 -11 0 -24 -4
-30 -8 -9 -8 -30 -16 -204 -82 -47 -17 -103 -40 -126 -51 -23 -10 -46 -19 -53
-19 -6 0 -19 -4 -29 -10 -9 -5 -39 -19 -67 -31 -27 -11 -70 -30 -95 -41 -25
-11 -54 -23 -65 -28 -68 -27 -431 -204 -498 -242 -26 -16 -58 -28 -71 -28 -13
0 -31 -9 -41 -20 -10 -11 -24 -20 -30 -20 -11 0 -50 -22 -170 -93 -11 -7 -36
-24 -55 -38 -19 -14 -42 -29 -50 -32 -15 -7 -35 -20 -113 -72 -25 -16 -60 -39
-78 -50 -18 -11 -40 -25 -49 -30 -8 -6 -35 -24 -60 -40 -25 -16 -63 -43 -84
-60 -22 -16 -54 -39 -72 -50 -18 -11 -60 -39 -94 -63 -34 -24 -71 -47 -83 -51
-12 -5 -47 -31 -78 -57 -31 -27 -94 -79 -140 -115 -46 -36 -138 -113 -205
-170 -66 -57 -152 -130 -190 -163 -97 -83 -408 -385 -473 -459 -29 -34 -65
-75 -80 -92 -14 -16 -42 -50 -61 -75 -19 -25 -84 -99 -144 -165 -60 -66 -138
-158 -175 -204 -36 -46 -83 -104 -104 -129 -21 -25 -46 -57 -55 -71 -9 -14
-37 -53 -62 -86 -49 -64 -140 -200 -140 -210 0 -5 -34 -59 -70 -110 -8 -11
-33 -49 -55 -84 -22 -34 -54 -82 -72 -106 -18 -23 -42 -60 -53 -81 -12 -22
-31 -55 -42 -74 -11 -19 -32 -55 -46 -80 -13 -25 -30 -52 -36 -60 -7 -8 -31
-53 -54 -100 -24 -47 -63 -123 -87 -170 -57 -112 -165 -337 -165 -345 0 -7 -9
-29 -55 -129 -15 -32 -33 -77 -41 -99 -8 -22 -18 -45 -22 -51 -5 -6 -17 -33
-27 -61 -9 -27 -23 -63 -30 -80 -6 -16 -17 -46 -24 -65 -7 -19 -29 -78 -48
-130 -19 -52 -41 -115 -48 -140 -7 -25 -17 -56 -23 -70 -6 -14 -18 -52 -27
-85 -9 -33 -21 -68 -26 -78 -13 -23 -68 -226 -80 -295 -5 -30 -16 -63 -23 -75
-7 -12 -21 -58 -30 -102 -9 -44 -25 -116 -36 -160 -19 -82 -40 -196 -60 -320
-6 -38 -20 -119 -31 -180 -22 -123 -36 -240 -49 -395 -4 -58 -14 -139 -21
-180 -11 -58 -14 -225 -14 -720 0 -573 2 -655 17 -735 10 -49 18 -110 18 -134
0 -47 12 -152 37 -311 8 -52 19 -129 24 -170 6 -41 14 -91 19 -110 13 -56 31
-150 41 -215 5 -33 16 -80 23 -105 8 -25 24 -90 36 -145 13 -55 27 -108 32
-118 5 -10 13 -39 18 -65 11 -57 63 -241 84 -297 8 -22 15 -49 16 -60 0 -12 4
-25 8 -30 4 -6 16 -37 26 -70 11 -33 32 -96 48 -140 16 -44 41 -111 55 -150
14 -38 29 -79 34 -90 5 -11 20 -50 34 -87 14 -38 29 -76 34 -85 5 -10 27 -61
49 -113 38 -89 92 -206 112 -240 4 -8 41 -81 82 -162 40 -81 87 -173 105 -205
17 -32 36 -67 41 -78 46 -95 339 -575 395 -647 15 -19 27 -38 27 -42 0 -4 21
-36 48 -71 26 -35 63 -87 82 -115 19 -28 58 -80 85 -115 28 -35 75 -97 105
-136 30 -39 78 -97 105 -129 28 -31 108 -125 179 -209 72 -84 146 -166 165
-183 20 -17 115 -106 211 -197 96 -92 205 -194 241 -226 36 -33 112 -103 169
-155 57 -52 116 -104 131 -115 78 -57 279 -228 293 -249 14 -22 113 -94 271
-196 30 -19 82 -54 115 -77 33 -24 65 -43 69 -43 5 0 11 -3 13 -8 2 -4 41 -32
88 -61 47 -30 101 -66 120 -81 41 -32 186 -115 275 -157 17 -8 39 -19 50 -26
58 -33 129 -71 210 -112 50 -25 97 -50 105 -55 8 -5 49 -25 90 -44 41 -19 105
-48 141 -65 37 -17 72 -31 79 -31 6 0 23 -9 37 -20 14 -11 31 -20 38 -20 7 0
50 -19 96 -41 46 -23 117 -52 158 -65 41 -13 79 -28 85 -34 7 -5 30 -14 51
-19 38 -10 203 -67 255 -89 14 -5 45 -15 70 -22 25 -6 68 -20 95 -31 28 -10
62 -19 75 -19 14 0 38 -7 54 -15 15 -8 35 -15 44 -15 9 0 29 -4 46 -9 17 -6
63 -19 101 -31 39 -12 90 -26 115 -30 92 -18 265 -62 275 -70 13 -10 162 -38
272 -51 45 -5 108 -16 140 -24 31 -8 83 -15 114 -15 32 0 69 -4 84 -10 30 -12
163 -26 417 -45 103 -7 196 -18 207 -24 32 -18 944 -15 1078 3 59 8 155 18
213 21 106 6 288 27 390 45 30 5 82 14 115 19 124 20 381 70 410 80 17 6 80
20 140 32 61 11 118 25 127 30 9 5 31 9 48 9 17 0 47 7 68 16 20 8 66 22 102
29 96 20 133 31 157 43 12 7 33 12 48 12 14 0 43 9 65 20 22 11 46 20 55 20 8
0 23 4 33 9 9 4 33 14 52 21 362 128 439 156 463 170 9 6 47 21 84 35 36 14
71 29 77 34 6 5 25 12 43 15 17 4 37 14 44 22 6 8 19 14 29 14 10 0 45 13 78
30 34 16 67 30 74 30 8 0 18 4 24 10 5 5 104 57 219 115 116 59 217 112 225
119 8 7 29 20 45 28 61 31 130 70 220 125 11 7 54 33 95 58 146 89 266 167
307 201 23 19 45 34 49 34 4 0 35 20 68 45 34 26 93 69 132 98 175 128 302
228 414 327 36 32 106 92 156 134 217 179 701 687 907 950 26 33 56 70 65 81
10 11 28 36 41 55 14 19 40 53 58 75 46 53 183 242 213 291 13 21 35 53 49 71
26 32 54 75 198 308 84 135 92 149 211 367 105 192 322 634 322 656 0 7 8 30
19 50 10 20 26 55 36 77 9 22 25 58 35 80 34 74 70 166 70 178 0 7 7 26 16 42
9 17 35 89 59 160 23 72 48 141 53 155 10 23 55 168 96 309 9 29 16 68 16 87
0 18 5 36 10 39 6 3 10 14 10 23 0 9 11 53 24 97 13 44 30 107 36 140 7 33 21
89 31 124 11 35 19 78 19 96 0 17 4 45 10 61 10 30 20 87 45 269 9 61 20 125
26 143 6 17 15 85 20 150 5 64 17 196 25 292 20 217 31 1244 14 1300 -5 19
-15 98 -21 175 -18 244 -27 328 -43 410 -8 44 -22 130 -31 190 -8 61 -22 139
-30 175 -7 36 -19 90 -26 120 -6 30 -18 82 -25 115 -8 33 -21 89 -28 125 -8
36 -22 92 -31 125 -9 33 -21 76 -26 95 -25 98 -42 159 -55 200 -14 41 -30 96
-53 188 -5 18 -13 38 -19 45 -5 7 -15 28 -20 47 -20 64 -67 195 -77 210 -8 13
-50 127 -75 202 -4 15 -16 38 -24 50 -9 12 -16 28 -16 35 0 7 -13 41 -29 75
-16 35 -39 88 -51 118 -12 30 -25 59 -30 65 -4 5 -11 24 -14 42 -4 17 -14 37
-22 44 -8 6 -14 20 -14 31 0 10 -7 29 -15 42 -14 21 -103 187 -160 301 -14 28
-37 68 -50 90 -13 22 -27 47 -31 55 -4 8 -36 63 -71 122 -35 59 -63 109 -63
112 0 5 -15 28 -82 128 -10 15 -18 35 -18 45 0 18 -45 89 -160 254 -33 48 -60
89 -60 92 0 6 -141 198 -207 280 -21 27 -58 74 -81 105 -199 259 -927 998
-1202 1219 -208 167 -562 432 -645 482 -22 13 -56 36 -75 51 -19 15 -51 36
-70 47 -19 10 -67 40 -107 66 -39 26 -76 47 -81 47 -5 0 -15 7 -23 16 -7 8
-33 27 -58 40 -25 14 -59 33 -76 44 -16 10 -57 33 -90 49 -33 17 -67 35 -75
40 -15 9 -88 46 -125 64 -11 6 -27 14 -35 19 -8 4 -24 12 -35 17 -62 28 -112
52 -125 60 -15 9 -207 101 -265 127 -16 7 -57 25 -90 39 -33 15 -78 35 -101
46 -22 10 -46 19 -53 19 -7 0 -25 8 -39 18 -15 10 -57 28 -95 40 -37 12 -75
26 -85 31 -21 10 -63 25 -167 58 -44 14 -101 34 -127 44 -26 10 -54 19 -62 19
-9 0 -24 4 -34 9 -9 5 -44 16 -77 25 -33 9 -82 24 -110 33 -27 9 -92 26 -142
39 -51 12 -98 26 -105 30 -7 4 -42 13 -78 20 -36 7 -94 20 -130 29 -36 9 -92
20 -125 24 -33 5 -85 15 -115 23 -30 9 -109 23 -175 33 -66 9 -150 23 -187 31
-37 8 -91 14 -120 14 -29 0 -71 5 -93 10 -22 6 -103 18 -180 27 -116 14 -267
17 -881 20 -407 2 -743 1 -746 -3z m-3087 -5210 c42 -5 82 -14 90 -20 8 -6 25
-15 39 -19 46 -14 169 -124 170 -152 0 -7 4 -13 10 -13 5 0 12 -11 16 -25 3
-13 12 -29 20 -36 8 -6 14 -19 14 -29 0 -10 7 -23 15 -30 8 -7 15 -21 15 -31
0 -11 9 -36 20 -56 11 -21 20 -47 20 -58 0 -11 7 -29 15 -39 8 -11 15 -33 15
-48 0 -16 7 -31 15 -34 9 -4 15 -19 15 -39 0 -18 7 -38 15 -45 8 -7 15 -23 15
-36 0 -13 9 -41 20 -61 11 -21 20 -45 20 -53 0 -8 7 -24 15 -34 8 -11 15 -30
15 -42 0 -12 7 -27 15 -34 8 -7 15 -25 15 -40 0 -15 7 -33 15 -40 8 -7 15 -23
15 -36 0 -12 7 -29 15 -38 8 -8 15 -23 15 -33 0 -10 9 -31 20 -48 11 -16 20
-40 20 -52 0 -13 4 -23 10 -23 5 0 14 -18 20 -40 6 -22 15 -40 20 -40 6 0 10
-9 10 -20 0 -11 9 -37 20 -57 11 -21 20 -43 20 -49 0 -6 7 -17 15 -24 8 -7 15
-23 15 -35 0 -12 7 -28 15 -35 8 -7 15 -20 15 -30 0 -10 7 -23 15 -30 8 -7 15
-23 15 -35 0 -12 7 -28 15 -35 8 -7 15 -20 15 -30 0 -10 6 -23 14 -29 8 -7 18
-25 21 -41 3 -16 13 -34 21 -41 8 -6 14 -19 14 -29 0 -10 7 -23 15 -30 8 -7
15 -20 15 -30 0 -10 7 -23 15 -30 8 -7 15 -21 15 -31 0 -10 5 -21 10 -24 6 -4
17 -21 25 -38 8 -18 19 -39 24 -47 5 -8 12 -22 15 -30 3 -8 10 -22 15 -30 5
-8 12 -22 15 -30 4 -8 15 -28 26 -45 11 -16 24 -41 30 -54 6 -13 24 -44 40
-68 17 -24 30 -51 30 -59 0 -8 7 -17 15 -20 8 -4 15 -10 15 -16 0 -8 55 -103
102 -176 10 -15 21 -34 25 -42 10 -23 47 -75 56 -78 4 -2 7 -9 7 -17 0 -7 7
-19 16 -26 9 -7 20 -22 25 -34 10 -23 28 -51 47 -74 7 -9 31 -41 52 -71 21
-30 44 -60 50 -67 5 -7 10 -15 10 -19 0 -4 15 -23 33 -44 17 -21 40 -48 50
-61 47 -65 81 -103 192 -216 66 -68 126 -123 133 -123 6 0 12 -3 12 -7 0 -8
30 -27 105 -68 31 -17 56 -21 112 -21 71 1 72 2 107 41 26 28 36 49 36 72 0
18 8 54 18 80 16 45 17 121 17 1048 0 815 -2 1004 -13 1023 -8 13 -16 58 -19
100 -3 43 -12 87 -19 99 -8 12 -14 37 -14 56 0 18 -7 42 -15 53 -8 10 -15 28
-15 40 0 11 -7 29 -15 40 -8 10 -15 28 -15 40 0 11 -9 29 -20 39 -11 10 -20
22 -20 27 0 12 -72 122 -82 126 -5 2 -8 9 -8 16 0 7 -10 21 -21 32 -32 28
-149 185 -149 199 0 7 -7 18 -15 25 -8 7 -15 26 -15 43 0 17 -5 46 -12 64 -10
27 -10 38 0 53 7 11 12 29 12 41 0 33 48 106 93 141 58 46 85 59 142 71 68 14
1940 14 2015 0 30 -6 71 -18 90 -28 43 -23 120 -104 120 -126 0 -9 7 -22 15
-29 8 -7 15 -27 15 -44 0 -17 7 -63 15 -101 12 -60 15 -255 15 -1332 l0 -1262
33 -61 c18 -35 42 -66 54 -71 11 -4 24 -13 28 -18 9 -16 88 -13 111 4 10 8 29
15 40 15 12 0 33 9 47 20 14 11 28 20 32 20 8 0 79 53 106 79 9 9 34 30 54 46
60 48 245 236 245 249 0 3 8 14 18 24 40 42 82 94 82 102 0 4 7 10 15 14 8 3
15 11 15 17 0 7 6 17 14 23 13 10 132 165 166 216 8 12 30 42 48 66 17 23 32
46 32 49 0 6 41 66 51 75 5 4 24 34 74 118 18 31 49 77 55 82 3 3 11 16 18 30
16 33 31 58 65 101 15 20 27 43 27 51 0 8 9 23 20 33 11 10 20 22 20 28 0 5
13 29 30 54 16 24 30 50 30 57 0 8 7 19 15 26 8 7 15 21 15 31 0 11 4 19 9 19
6 0 28 37 51 82 23 46 47 90 54 98 7 8 16 27 20 43 3 15 11 27 16 27 6 0 10 7
10 16 0 9 9 27 20 41 11 14 20 34 20 44 0 11 4 19 10 19 5 0 13 12 16 27 4 15
13 34 21 41 7 7 13 22 13 31 0 10 7 24 15 31 8 7 15 21 15 31 0 10 4 21 10 24
11 7 60 102 60 117 0 5 7 16 15 24 8 9 15 24 15 33 0 10 7 24 15 31 8 7 15 19
15 27 0 8 6 27 13 41 8 15 24 50 37 77 13 28 29 62 37 77 7 14 13 33 13 41 0
8 7 20 15 27 8 7 15 22 15 34 0 42 145 236 176 236 8 0 14 5 14 11 0 5 14 15
30 20 17 6 30 15 30 20 0 5 8 9 18 9 9 0 34 9 55 20 24 13 56 20 91 20 30 0
58 5 61 10 4 6 228 10 640 10 412 0 636 -4 640 -10 3 -5 33 -10 66 -10 40 0
71 -6 96 -20 21 -11 42 -20 48 -20 19 0 97 -79 116 -118 25 -48 27 -255 4
-286 -8 -11 -15 -36 -15 -56 0 -20 -7 -45 -15 -56 -8 -10 -15 -27 -15 -37 0
-9 -9 -34 -20 -54 -11 -21 -20 -43 -20 -50 0 -6 -7 -24 -14 -40 -8 -15 -17
-35 -20 -43 -3 -8 -10 -22 -15 -30 -5 -8 -12 -22 -15 -30 -3 -8 -10 -22 -15
-30 -5 -8 -21 -40 -36 -70 -14 -30 -30 -62 -35 -70 -5 -8 -11 -22 -14 -30 -3
-8 -10 -23 -16 -32 -15 -26 -25 -46 -57 -108 -15 -30 -31 -57 -35 -60 -4 -3
-12 -17 -18 -30 -16 -36 -36 -70 -49 -83 -6 -6 -11 -17 -11 -24 0 -8 -8 -26
-19 -41 -52 -75 -81 -124 -81 -138 0 -8 -7 -17 -15 -20 -8 -4 -15 -14 -15 -24
0 -9 -9 -25 -20 -35 -11 -10 -20 -22 -20 -28 0 -5 -14 -29 -30 -54 -16 -24
-30 -46 -30 -48 0 -2 -13 -24 -30 -48 -16 -25 -30 -49 -30 -55 0 -5 -7 -16
-16 -23 -9 -7 -20 -22 -25 -34 -5 -11 -18 -33 -29 -50 -11 -16 -23 -37 -27
-45 -3 -8 -12 -19 -20 -23 -7 -4 -13 -14 -13 -21 0 -7 -9 -21 -20 -31 -11 -10
-20 -24 -20 -32 0 -14 -8 -26 -42 -64 -10 -10 -18 -24 -18 -31 0 -6 -6 -19
-14 -27 -27 -32 -86 -121 -86 -131 0 -5 -3 -10 -7 -10 -5 0 -26 -30 -48 -67
-22 -36 -47 -73 -56 -83 -8 -9 -19 -23 -23 -31 -13 -27 -31 -55 -58 -90 -16
-20 -28 -40 -28 -46 0 -5 -9 -18 -20 -28 -11 -10 -20 -22 -20 -27 0 -5 -5 -14
-10 -21 -28 -33 -80 -107 -80 -113 0 -4 -16 -26 -35 -50 -19 -23 -35 -45 -35
-49 0 -4 -20 -33 -45 -65 -25 -32 -45 -63 -45 -68 0 -5 -9 -17 -20 -27 -11
-10 -20 -24 -20 -30 0 -7 -7 -18 -15 -25 -8 -7 -15 -20 -15 -30 0 -10 -7 -23
-15 -30 -8 -7 -18 -30 -21 -52 -4 -21 -11 -41 -15 -44 -14 -8 -10 -69 6 -100
8 -16 15 -36 15 -45 0 -9 7 -22 15 -29 8 -7 15 -17 15 -22 0 -5 8 -20 18 -33
9 -12 24 -33 32 -45 8 -13 23 -32 33 -42 9 -10 17 -20 17 -23 0 -3 138 -144
308 -314 324 -327 341 -344 467 -486 43 -50 83 -91 87 -93 4 -2 8 -8 8 -13 0
-5 12 -22 28 -37 15 -15 53 -59 85 -97 96 -115 140 -167 174 -204 18 -20 33
-39 33 -43 0 -4 6 -13 13 -20 11 -12 90 -108 110 -133 4 -5 15 -20 25 -32 9
-11 24 -31 32 -44 8 -12 23 -31 33 -41 9 -10 17 -20 17 -23 0 -6 40 -65 50
-75 18 -17 97 -138 109 -167 5 -11 15 -24 20 -28 6 -3 23 -31 37 -60 14 -30
29 -57 35 -60 5 -4 9 -17 9 -29 0 -13 7 -29 15 -36 8 -7 15 -19 15 -26 0 -8 9
-31 20 -51 11 -21 20 -47 20 -58 0 -12 6 -27 13 -33 8 -9 12 -48 12 -120 0
-93 -3 -113 -24 -157 -27 -55 -123 -155 -148 -155 -9 0 -24 -7 -34 -16 -10 -9
-44 -20 -76 -24 -32 -5 -76 -12 -98 -17 -47 -9 -1266 -10 -1310 0 -16 4 -55
10 -85 15 -30 4 -66 15 -80 25 -13 9 -32 17 -41 17 -9 0 -22 7 -29 15 -7 8
-19 15 -28 15 -8 0 -36 17 -61 37 -25 21 -52 42 -60 48 -29 20 -280 270 -281
279 0 5 -15 23 -32 41 -18 17 -69 72 -113 120 -44 49 -95 104 -112 122 -18 19
-33 36 -33 39 0 6 -54 63 -309 322 -105 105 -192 192 -195 192 -2 0 -27 21
-54 48 -47 44 -180 159 -224 192 -11 8 -40 32 -65 53 -25 21 -58 46 -72 55
-14 9 -28 19 -31 22 -13 14 -70 50 -79 50 -5 0 -11 3 -13 8 -5 11 -66 52 -77
52 -5 0 -16 6 -23 13 -18 18 -96 57 -112 57 -7 0 -19 7 -26 15 -7 8 -27 15
-45 15 -18 0 -38 7 -45 15 -10 12 -40 15 -155 15 -115 0 -145 -3 -155 -15 -7
-8 -19 -15 -27 -15 -18 0 -52 -39 -53 -60 0 -8 -7 -24 -15 -34 -13 -17 -15
-115 -15 -680 0 -444 -4 -674 -11 -701 -6 -22 -13 -59 -16 -82 -3 -23 -11 -47
-19 -54 -8 -6 -14 -18 -14 -26 0 -17 -82 -100 -113 -113 -12 -6 -29 -14 -37
-18 -54 -31 -86 -42 -114 -42 -17 0 -41 -7 -53 -15 -21 -14 -107 -25 -328 -40
-105 -8 -222 -8 -295 -1 -36 3 -126 11 -201 16 -75 6 -156 17 -179 25 -23 8
-66 15 -94 15 -28 1 -62 7 -76 15 -14 8 -46 14 -71 15 -29 0 -51 6 -59 15 -7
9 -29 15 -54 15 -23 0 -51 7 -62 15 -10 8 -33 15 -49 15 -17 0 -47 9 -68 20
-20 11 -49 20 -63 20 -14 0 -32 7 -40 15 -9 8 -28 15 -43 15 -16 0 -34 7 -41
15 -7 8 -25 15 -40 15 -15 0 -33 7 -40 15 -7 8 -23 15 -36 15 -12 0 -29 7 -38
15 -8 8 -28 18 -45 21 -17 4 -36 13 -42 20 -6 8 -22 14 -34 14 -12 0 -28 7
-35 15 -7 8 -20 15 -30 15 -10 0 -23 7 -30 15 -7 8 -19 15 -26 15 -19 0 -98
42 -107 57 -4 7 -16 13 -26 13 -10 0 -24 7 -31 15 -7 8 -18 15 -26 15 -7 0
-33 14 -57 30 -25 17 -49 30 -55 30 -5 0 -16 7 -23 16 -7 9 -22 20 -34 25 -11
5 -33 18 -50 29 -16 11 -37 23 -45 26 -8 4 -34 22 -57 41 -23 18 -44 33 -48
33 -4 0 -33 20 -65 45 -32 25 -61 45 -64 45 -7 0 -177 131 -205 158 -10 9 -40
35 -66 57 -180 147 -428 391 -585 574 -30 35 -62 72 -70 80 -8 9 -35 41 -60
71 -25 30 -50 59 -57 63 -7 4 -13 14 -13 22 0 7 -3 15 -8 17 -4 2 -26 28 -49
58 -24 30 -47 60 -53 67 -5 7 -10 15 -10 19 0 4 -7 14 -15 23 -47 52 -55 62
-55 69 0 4 -13 23 -30 42 -16 19 -29 39 -30 44 0 5 -16 28 -35 52 -19 23 -35
47 -35 53 0 6 -4 11 -9 11 -6 0 -16 11 -23 24 -7 14 -35 57 -63 97 -70 101
-83 121 -96 147 -7 12 -16 22 -21 22 -4 0 -8 6 -8 14 0 8 -6 21 -13 28 -18 19
-63 88 -88 136 -7 12 -16 22 -21 22 -4 0 -8 6 -8 13 0 7 -7 22 -15 32 -34 44
-85 128 -85 140 0 8 -6 18 -13 22 -16 10 -87 126 -87 142 0 6 -4 11 -9 11 -5
0 -14 14 -21 30 -7 17 -15 30 -19 30 -3 0 -17 25 -30 55 -14 30 -28 55 -31 55
-4 0 -19 25 -35 55 -15 30 -31 55 -36 55 -5 0 -9 9 -9 19 0 11 -4 22 -9 26 -5
3 -24 33 -41 68 -17 34 -40 76 -51 92 -10 17 -21 37 -25 45 -3 8 -10 22 -15
30 -5 8 -14 25 -19 38 -6 13 -17 30 -25 38 -8 9 -15 24 -15 33 0 10 -6 24 -14
30 -8 7 -17 23 -20 36 -4 14 -11 25 -16 25 -6 0 -10 9 -10 21 0 11 -9 32 -20
46 -11 14 -20 31 -20 38 0 7 -7 18 -15 25 -8 7 -15 20 -15 30 0 10 -7 23 -15
30 -8 7 -15 21 -15 31 0 9 -7 24 -15 33 -8 8 -15 21 -15 28 0 8 -7 23 -15 34
-8 10 -15 26 -15 35 0 9 -9 26 -20 39 -11 13 -20 31 -20 41 0 10 -4 20 -9 24
-5 3 -12 19 -16 36 -4 17 -13 33 -21 36 -8 3 -14 14 -14 25 0 11 -6 32 -14 46
-31 61 -56 120 -56 134 0 9 -7 21 -15 28 -8 7 -15 23 -15 35 0 12 -7 28 -15
35 -8 7 -15 25 -15 40 0 15 -7 33 -15 40 -8 7 -15 23 -15 35 0 12 -6 28 -14
34 -8 7 -17 28 -21 48 -4 20 -13 46 -21 57 -8 11 -14 30 -14 42 0 12 -7 27
-15 34 -8 7 -15 25 -15 41 0 15 -7 34 -15 43 -8 8 -15 28 -15 45 0 16 -7 36
-15 45 -8 8 -15 26 -15 40 0 14 -9 43 -20 63 -11 21 -20 52 -20 69 0 17 -7 37
-15 44 -8 7 -15 29 -15 50 0 21 -7 43 -15 50 -9 7 -15 29 -15 54 0 23 -6 50
-14 61 -7 11 -16 49 -20 85 -4 36 -13 71 -19 79 -8 9 -13 70 -16 167 -3 143
-2 156 20 201 27 56 111 141 148 150 14 3 35 12 46 19 11 8 46 14 80 14 33 0
67 5 75 10 18 12 1230 6 1341 -6z"/>
</g>
</svg>
